<svg width="56" height="52" viewBox="0 0 56 52" fill="none" xmlns="http://www.w3.org/2000/svg">
<g clip-path="url(#clip0_10103_70)">
<path d="M17.8281 45.1986H38.1719C38.7758 45.1986 39.2656 44.7488 39.2656 44.194V29.7281C39.2656 29.1733 38.7758 28.7235 38.1719 28.7235H17.8281C17.2242 28.7235 16.7344 29.1733 16.7344 29.7281V44.194C16.7344 44.7488 17.2242 45.1986 17.8281 45.1986ZM18.9219 37.9656H26.9062V43.1894H18.9219V37.9656ZM29.0938 43.1894V37.9656H37.0781V43.1894H29.0938ZM37.0781 35.9565H29.0938V30.7327H37.0781V35.9565ZM26.9062 30.7327V35.9565H18.9219V30.7327H26.9062Z" fill="#19BCE4"/>
<path d="M54.6268 22.3301L50.0933 18.8163V6.82372C50.0933 6.26889 49.6035 5.81914 48.9996 5.81914H41.9996C41.3956 5.81914 40.9058 6.26889 40.9058 6.82372V11.6952L28.7049 2.23853C28.2975 1.92269 27.7015 1.92269 27.2942 2.23853L1.37233 22.3301C1.02135 22.6021 0.892724 23.0465 1.05044 23.4427C1.20816 23.8389 1.61843 24.1024 2.07769 24.1024H4.15582V50.8242C4.15582 51.379 4.6456 51.8288 5.24957 51.8288H50.7496C51.3535 51.8288 51.8433 51.379 51.8433 50.8242V24.1024H53.9214C54.3807 24.1024 54.791 23.8389 54.9488 23.4427C55.1064 23.0466 54.9778 22.6021 54.6268 22.3301ZM43.0933 7.82829H47.9058V17.1208L43.0933 13.3907V7.82829ZM27.9996 4.32081L50.9295 22.0933H5.06965L27.9996 4.32081ZM49.6558 49.8196H6.34332V24.1024H49.6558V49.8196Z" fill="#19BCE4"/>
<path d="M27.5012 18.4928C27.7765 18.7457 28.2228 18.7457 28.4981 18.4928L31.4138 15.8148C32.3566 14.9489 32.3566 13.545 31.4138 12.6791C30.471 11.8131 28.9425 11.8131 27.9997 12.6791C27.0569 11.8131 25.5283 11.8131 24.5855 12.6791C23.6427 13.545 23.6427 14.9489 24.5855 15.8148L27.5012 18.4928Z" fill="#19BCE4"/>
<path d="M7.83939 10.6111C8.221 10.9616 8.72861 11.1547 9.26837 11.1547C9.80814 11.1547 10.3156 10.9616 10.6972 10.6111L14.5326 7.08847C16.1972 5.5596 16.1972 3.07197 14.5326 1.543C13.7263 0.802328 12.6541 0.39447 11.5138 0.39447C10.7076 0.39447 9.93556 0.598299 9.26739 0.979536C7.62184 0.0456812 5.43008 0.233437 4.00405 1.543C2.33947 3.07187 2.33947 5.5595 4.00405 7.08847L7.83939 10.6111ZM5.55083 2.96368C5.95661 2.59098 6.48981 2.40453 7.02291 2.40453C7.556 2.40453 8.0892 2.59088 8.49498 2.96368C8.70017 3.15203 8.97831 3.25792 9.26837 3.25792C9.55844 3.25792 9.83669 3.15203 10.0418 2.96368C10.435 2.60253 10.9578 2.40362 11.5138 2.40362C12.0699 2.40362 12.5927 2.60253 12.9859 2.96368C13.7976 3.70917 13.7976 4.9223 12.9859 5.66779L9.26826 9.08215L5.55083 5.66779C4.73916 4.9223 4.73916 3.70917 5.55083 2.96368Z" fill="#19BCE4"/>
</g>
<defs>
<clipPath id="clip0_10103_70">
<rect width="56" height="51.4343" fill="white" transform="translate(0 0.39447)"/>
</clipPath>
</defs>
</svg>
