<svg width="61" height="60" viewBox="0 0 61 60" fill="none" xmlns="http://www.w3.org/2000/svg">
<path d="M30.0942 5C23.4429 5 17.0641 7.63392 12.361 12.3223C7.65782 17.0107 5.01563 23.3696 5.01562 30C5.01563 36.6304 7.65782 42.9893 12.361 47.6777C17.0641 52.3661 23.4429 55 30.0942 55C36.7454 55 43.1242 52.3661 47.8274 47.6777C52.5305 42.9893 55.1727 36.6304 55.1727 30C55.1727 23.3696 52.5305 17.0107 47.8274 12.3223C43.1242 7.63392 36.7454 5 30.0942 5Z" fill="#29B6F6"/>
<path d="M42.5709 18.75L37.8736 42.6575C37.8736 42.6575 37.6718 43.75 36.3125 43.75C35.5902 43.75 35.2178 43.4075 35.2178 43.4075L25.0435 34.9913L20.0654 32.49L13.6766 30.7963C13.6766 30.7963 12.5393 30.4688 12.5393 29.5313C12.5393 28.75 13.7092 28.3775 13.7092 28.3775L40.4379 17.7925C40.4367 17.7913 41.2542 17.4988 41.8498 17.5C42.216 17.5 42.6335 17.6563 42.6335 18.125C42.6335 18.4375 42.5709 18.75 42.5709 18.75Z" fill="white"/>
<path d="M28.8404 38.1313L24.5445 42.3488C24.5445 42.3488 24.3576 42.4925 24.1081 42.4988C24.0216 42.5013 23.9288 42.4875 23.8335 42.445L25.0423 34.9888L28.8404 38.1313Z" fill="#B0BEC5"/>
<path d="M37.4886 22.7451C37.2767 22.4701 36.8854 22.4201 36.6096 22.6289L20.0627 32.5001C20.0627 32.5001 22.7035 39.8651 23.106 41.1401C23.5098 42.4164 23.8333 42.4464 23.8333 42.4464L25.0421 34.9901L37.3707 23.6201C37.6466 23.4114 37.698 23.0201 37.4886 22.7451Z" fill="#CFD8DC"/>
</svg>
