<svg width="56" height="53" viewBox="0 0 56 53" fill="none" xmlns="http://www.w3.org/2000/svg">
<g clip-path="url(#clip0_10103_56)">
<path d="M55.9585 23.0842L52.2253 11.94C52.1047 11.5804 51.7429 11.3349 51.3332 11.3349H33.053L22.1263 1.29906C21.7622 0.96444 21.1706 0.96444 20.8065 1.29906L9.87984 11.3349H4.66649C4.25677 11.3349 3.89495 11.5804 3.77442 11.94L0.0410173 23.0842C-0.0460452 23.3443 0.00634545 23.6268 0.18233 23.8456C0.358205 24.0644 0.636892 24.1936 0.93308 24.1936H3.73308V50.7679C3.73308 51.2414 4.151 51.6251 4.66638 51.6251H10.2664H16.7998H26.1331H32.6664H51.3331C51.8486 51.6251 52.2664 51.2413 52.2664 50.7679V24.1935H55.0664C55.3626 24.1935 55.6413 24.0644 55.8172 23.8456C55.9932 23.6268 56.0456 23.3442 55.9585 23.0842ZM9.33308 49.9106H5.59978V24.1935H9.33308V49.9106ZM9.33308 22.4791H4.66649H2.1968L5.35566 13.0494H9.33308V22.4791ZM25.1998 49.9106H17.7331V36.1948H25.1998V49.9106ZM31.7331 23.3363V49.9106H27.0664V35.3376C27.0664 34.8642 26.6485 34.4804 26.1331 34.4804H16.7998C16.2843 34.4804 15.8665 34.8643 15.8665 35.3376V49.9107H11.1998V23.3363V12.5472L21.4665 3.11755L31.7332 12.5472V23.3363H31.7331ZM50.3998 49.9106H33.5998V24.1935H50.3998V49.9106ZM51.3331 22.4791H33.5998V13.0494H50.6438L53.8027 22.4791H51.3331Z" fill="#19BCE4"/>
<path d="M48.5334 28.4797H43.8666C43.3512 28.4797 42.9333 28.8636 42.9333 29.3369V43.91C42.9333 44.3834 43.3513 44.7672 43.8666 44.7672H48.5334C49.0488 44.7672 49.4667 44.3834 49.4667 43.91V29.3369C49.4668 28.8636 49.0488 28.4797 48.5334 28.4797ZM47.6001 43.0528H44.8001V30.1942H47.6001V43.0528Z" fill="#19BCE4"/>
<path d="M40.1334 28.4797H35.4667C34.9513 28.4797 34.5334 28.8636 34.5334 29.3369V43.91C34.5334 44.3834 34.9514 44.7672 35.4667 44.7672H40.1334C40.6489 44.7672 41.0667 44.3834 41.0667 43.91V29.3369C41.0669 28.8636 40.6489 28.4797 40.1334 28.4797ZM39.2002 43.0528H36.4001V30.1942H39.2002V43.0528Z" fill="#19BCE4"/>
<path d="M26.1335 12.192H16.8002C16.2848 12.192 15.8669 12.5758 15.8669 13.0492V22.4789C15.8669 22.9522 16.2849 23.3361 16.8002 23.3361H26.1335C26.649 23.3361 27.0668 22.9522 27.0668 22.4789V13.0492C27.0669 12.5758 26.649 12.192 26.1335 12.192ZM25.2002 21.6215H17.7335V13.9064H25.2002V21.6215Z" fill="#19BCE4"/>
</g>
<defs>
<clipPath id="clip0_10103_56">
<rect width="56" height="51.4343" fill="white" transform="translate(0 0.619507)"/>
</clipPath>
</defs>
</svg>
