<svg width="61" height="60" viewBox="0 0 61 60" fill="none" xmlns="http://www.w3.org/2000/svg">
<path fill-rule="evenodd" clip-rule="evenodd" d="M6.104 54.1288L9.48208 41.835C7.39806 38.2375 6.30212 34.155 6.30338 29.9738C6.30965 16.8925 16.9881 6.25 30.1117 6.25C36.4804 6.2525 42.4566 8.72375 46.9519 13.2075C51.446 17.6925 53.9212 23.6525 53.9187 29.9925C53.9137 43.0737 43.2328 53.7175 30.1117 53.7175C30.1104 53.7175 30.1117 53.7175 30.1117 53.7175H30.1017C26.1179 53.7162 22.2019 52.72 18.7248 50.8287L6.104 54.1288Z" fill="white"/>
<path fill-rule="evenodd" clip-rule="evenodd" d="M6.1042 54.7538C5.93868 54.7538 5.77818 54.6887 5.65905 54.5687C5.50231 54.41 5.44087 54.1788 5.49981 53.965L8.80892 41.92C6.75749 38.2875 5.67536 34.1625 5.67786 29.975C5.68288 16.5475 16.6435 5.625 30.1119 5.625C36.6448 5.6275 42.7828 8.16375 47.396 12.7663C52.0092 17.37 54.5484 23.4875 54.5459 29.9925C54.5409 43.4188 43.5791 54.3425 30.1119 54.3425C26.1131 54.3412 22.157 53.3575 18.646 51.4962L6.26345 54.7325C6.21078 54.7475 6.15812 54.7538 6.1042 54.7538Z" fill="white"/>
<path fill-rule="evenodd" clip-rule="evenodd" d="M30.1117 6.25C36.4804 6.2525 42.4566 8.72375 46.952 13.2075C51.446 17.6925 53.9213 23.6525 53.9188 29.9925C53.9138 43.0737 43.2328 53.7175 30.1117 53.7175H30.1017C26.118 53.7162 22.202 52.72 18.7248 50.8287L6.10405 54.1288L9.48213 41.835C7.3981 38.2375 6.30217 34.155 6.30343 29.9738C6.3097 16.8925 16.9881 6.25 30.1117 6.25ZM30.1117 5C16.2985 5 5.05577 16.2025 5.0495 29.9738C5.04825 34.1825 6.11408 38.33 8.13541 42.0013L4.89401 53.8C4.77614 54.2313 4.89652 54.6912 5.21251 55.0088C5.45076 55.2487 5.77302 55.38 6.10405 55.38C6.21064 55.38 6.31722 55.3662 6.42255 55.3387L18.5693 52.1637C22.1154 53.9987 26.0904 54.9675 30.1017 54.9688C43.925 54.9688 55.1677 43.765 55.174 29.9938C55.1765 23.32 52.5721 17.045 47.841 12.325C43.1074 7.60375 36.8115 5.0025 30.1117 5Z" fill="#CFD8DC"/>
<path fill-rule="evenodd" clip-rule="evenodd" d="M44.1081 16.0401C40.3714 12.3126 35.4046 10.2588 30.118 10.2576C19.2038 10.2576 10.3273 19.1026 10.3223 29.9751C10.321 33.7013 11.3668 37.3288 13.348 40.4701L13.8195 41.2163L11.8195 48.4926L19.3092 46.5351L20.0327 46.9626C23.0697 48.7601 26.5531 49.7101 30.1042 49.7113H30.1117C41.0184 49.7113 49.8949 40.8651 49.8987 29.9913C49.9 24.7226 47.8448 19.7676 44.1081 16.0401Z" fill="#40C351"/>
<path fill-rule="evenodd" clip-rule="evenodd" d="M24.1607 20.0564C23.7156 19.0689 23.2466 19.0489 22.8215 19.0314C22.4742 19.0164 22.0779 19.0176 21.6817 19.0176C21.2854 19.0176 20.6409 19.1664 20.0955 19.7601C19.55 20.3539 18.0127 21.7876 18.0127 24.7051C18.0127 27.6226 20.1444 30.4426 20.4416 30.8376C20.7387 31.2326 24.5569 37.4114 30.6034 39.7889C35.6279 41.7639 36.6511 41.3714 37.742 41.2726C38.8329 41.1739 41.2617 39.8389 41.7571 38.4539C42.2524 37.0689 42.2524 35.8826 42.1044 35.6351C41.9552 35.3876 41.5589 35.2401 40.9646 34.9426C40.3702 34.6451 37.4448 33.2114 36.8993 33.0139C36.3539 32.8164 35.9576 32.7176 35.5601 33.3114C35.1639 33.9039 34.0241 35.2401 33.6767 35.6351C33.3294 36.0314 32.9821 36.0814 32.3877 35.7839C31.7934 35.4864 29.8774 34.8614 27.604 32.8414C25.8359 31.2701 24.6422 29.3289 24.2949 28.7351C23.9475 28.1426 24.2573 27.8214 24.5557 27.5251C24.8228 27.2589 25.15 26.8326 25.4485 26.4864C25.7457 26.1401 25.8447 25.8926 26.0428 25.4976C26.241 25.1014 26.1419 24.7551 25.9927 24.4589C25.846 24.1614 24.6899 21.2289 24.1607 20.0564Z" fill="white"/>
</svg>
