<svg width="56" height="52" viewBox="0 0 56 52" fill="none" xmlns="http://www.w3.org/2000/svg">
<g clip-path="url(#clip0_10103_77)">
<path d="M10.5 21.2644H12.1406C12.7447 21.2644 13.2344 20.8145 13.2344 20.2598V18.753C13.2344 18.1982 12.7447 17.7485 12.1406 17.7485H10.5C9.89581 17.7485 9.40625 18.1982 9.40625 18.753V20.2598C9.40625 20.8145 9.89581 21.2644 10.5 21.2644Z" fill="#19BCE4"/>
<path d="M10.5 27.2918H12.1406C12.7447 27.2918 13.2344 26.842 13.2344 26.2873V24.7802C13.2344 24.2254 12.7447 23.7756 12.1406 23.7756H10.5C9.89581 23.7756 9.40625 24.2254 9.40625 24.7802V26.2873C9.40625 26.842 9.89581 27.2918 10.5 27.2918Z" fill="#19BCE4"/>
<path d="M10.5 33.3191H12.1406C12.7447 33.3191 13.2344 32.8693 13.2344 32.3145V30.8077C13.2344 30.253 12.7447 29.8032 12.1406 29.8032H10.5C9.89581 29.8032 9.40625 30.253 9.40625 30.8077V32.3145C9.40625 32.8692 9.89581 33.3191 10.5 33.3191Z" fill="#19BCE4"/>
<path d="M10.5 39.3464H12.1406C12.7447 39.3464 13.2344 38.8966 13.2344 38.3419V36.8352C13.2344 36.2805 12.7447 35.8306 12.1406 35.8306H10.5C9.89581 35.8306 9.40625 36.2805 9.40625 36.8352V38.3419C9.40625 38.8966 9.89581 39.3464 10.5 39.3464Z" fill="#19BCE4"/>
<path d="M16.2422 21.2644H17.8829C18.4869 21.2644 18.9767 20.8145 18.9767 20.2598V18.753C18.9767 18.1982 18.4869 17.7485 17.8829 17.7485H16.2422C15.6381 17.7485 15.1484 18.1982 15.1484 18.753V20.2598C15.1484 20.8145 15.6381 21.2644 16.2422 21.2644Z" fill="#19BCE4"/>
<path d="M16.2422 27.2918H17.8829C18.4869 27.2918 18.9767 26.842 18.9767 26.2873V24.7802C18.9767 24.2254 18.4869 23.7756 17.8829 23.7756H16.2422C15.6381 23.7756 15.1484 24.2254 15.1484 24.7802V26.2873C15.1484 26.842 15.6381 27.2918 16.2422 27.2918Z" fill="#19BCE4"/>
<path d="M16.2422 33.3191H17.8829C18.4869 33.3191 18.9767 32.8693 18.9767 32.3145V30.8077C18.9767 30.253 18.4869 29.8032 17.8829 29.8032H16.2422C15.6381 29.8032 15.1484 30.253 15.1484 30.8077V32.3145C15.1484 32.8692 15.6381 33.3191 16.2422 33.3191Z" fill="#19BCE4"/>
<path d="M16.2422 39.3464H17.8829C18.4869 39.3464 18.9767 38.8966 18.9767 38.3419V36.8352C18.9767 36.2805 18.4869 35.8306 17.8829 35.8306H16.2422C15.6381 35.8306 15.1484 36.2805 15.1484 36.8352V38.3419C15.1484 38.8966 15.6381 39.3464 16.2422 39.3464Z" fill="#19BCE4"/>
<path d="M21.9836 21.2644H23.6244C24.2284 21.2644 24.7181 20.8145 24.7181 20.2598V18.753C24.7181 18.1982 24.2284 17.7485 23.6244 17.7485H21.9836C21.3797 17.7485 20.8899 18.1982 20.8899 18.753V20.2598C20.8899 20.8145 21.3796 21.2644 21.9836 21.2644Z" fill="#19BCE4"/>
<path d="M21.9836 27.2918H23.6244C24.2284 27.2918 24.7181 26.842 24.7181 26.2873V24.7802C24.7181 24.2254 24.2284 23.7756 23.6244 23.7756H21.9836C21.3797 23.7756 20.8899 24.2254 20.8899 24.7802V26.2873C20.8899 26.842 21.3796 27.2918 21.9836 27.2918Z" fill="#19BCE4"/>
<path d="M21.9836 33.3191H23.6244C24.2284 33.3191 24.7181 32.8693 24.7181 32.3145V30.8077C24.7181 30.253 24.2284 29.8032 23.6244 29.8032H21.9836C21.3797 29.8032 20.8899 30.253 20.8899 30.8077V32.3145C20.8899 32.8692 21.3796 33.3191 21.9836 33.3191Z" fill="#19BCE4"/>
<path d="M21.9836 39.3464H23.6244C24.2284 39.3464 24.7181 38.8966 24.7181 38.3419V36.8352C24.7181 36.2805 24.2284 35.8306 23.6244 35.8306H21.9836C21.3797 35.8306 20.8899 36.2805 20.8899 36.8352V38.3419C20.8899 38.8966 21.3796 39.3464 21.9836 39.3464Z" fill="#19BCE4"/>
<path d="M32.3748 21.2644H34.0154C34.6194 21.2644 35.1091 20.8145 35.1091 20.2598V18.753C35.1091 18.1982 34.6194 17.7485 34.0154 17.7485H32.3748C31.7706 17.7485 31.281 18.1982 31.281 18.753V20.2598C31.281 20.8145 31.7706 21.2644 32.3748 21.2644Z" fill="#19BCE4"/>
<path d="M32.3748 15.237H34.0154C34.6194 15.237 35.1091 14.7871 35.1091 14.2324V12.7258C35.1091 12.171 34.6194 11.7212 34.0154 11.7212H32.3748C31.7706 11.7212 31.281 12.171 31.281 12.7258V14.2324C31.281 14.7871 31.7706 15.237 32.3748 15.237Z" fill="#19BCE4"/>
<path d="M32.3748 9.21009H34.0154C34.6194 9.21009 35.1091 8.76024 35.1091 8.20552V6.69836C35.1091 6.14363 34.6194 5.69379 34.0154 5.69379H32.3748C31.7706 5.69379 31.281 6.14363 31.281 6.69836V8.20552C31.281 8.76024 31.7706 9.21009 32.3748 9.21009Z" fill="#19BCE4"/>
<path d="M32.3748 27.2918H34.0154C34.6194 27.2918 35.1091 26.842 35.1091 26.2873V24.7802C35.1091 24.2254 34.6194 23.7756 34.0154 23.7756H32.3748C31.7706 23.7756 31.281 24.2254 31.281 24.7802V26.2873C31.281 26.842 31.7706 27.2918 32.3748 27.2918Z" fill="#19BCE4"/>
<path d="M32.3748 33.3191H34.0154C34.6194 33.3191 35.1091 32.8693 35.1091 32.3145V30.8077C35.1091 30.253 34.6194 29.8032 34.0154 29.8032H32.3748C31.7706 29.8032 31.281 30.253 31.281 30.8077V32.3145C31.281 32.8692 31.7706 33.3191 32.3748 33.3191Z" fill="#19BCE4"/>
<path d="M32.3748 39.3464H34.0154C34.6194 39.3464 35.1091 38.8966 35.1091 38.3419V36.8352C35.1091 36.2805 34.6194 35.8306 34.0154 35.8306H32.3748C31.7706 35.8306 31.281 36.2805 31.281 36.8352V38.3419C31.281 38.8966 31.7706 39.3464 32.3748 39.3464Z" fill="#19BCE4"/>
<path d="M38.1169 21.2644H39.7576C40.3616 21.2644 40.8513 20.8145 40.8513 20.2598V18.753C40.8513 18.1982 40.3616 17.7485 39.7576 17.7485H38.1169C37.513 17.7485 37.0232 18.1982 37.0232 18.753V20.2598C37.0232 20.8145 37.513 21.2644 38.1169 21.2644Z" fill="#19BCE4"/>
<path d="M38.1169 15.237H39.7576C40.3616 15.237 40.8513 14.7871 40.8513 14.2324V12.7258C40.8513 12.171 40.3616 11.7212 39.7576 11.7212H38.1169C37.513 11.7212 37.0232 12.171 37.0232 12.7258V14.2324C37.0232 14.7871 37.513 15.237 38.1169 15.237Z" fill="#19BCE4"/>
<path d="M38.1169 9.21009H39.7576C40.3616 9.21009 40.8513 8.76024 40.8513 8.20552V6.69836C40.8513 6.14363 40.3616 5.69379 39.7576 5.69379H38.1169C37.513 5.69379 37.0232 6.14363 37.0232 6.69836V8.20552C37.0232 8.76024 37.513 9.21009 38.1169 9.21009Z" fill="#19BCE4"/>
<path d="M38.1169 27.2918H39.7576C40.3616 27.2918 40.8513 26.842 40.8513 26.2873V24.7802C40.8513 24.2254 40.3616 23.7756 39.7576 23.7756H38.1169C37.513 23.7756 37.0232 24.2254 37.0232 24.7802V26.2873C37.0232 26.842 37.513 27.2918 38.1169 27.2918Z" fill="#19BCE4"/>
<path d="M38.1169 33.3191H39.7576C40.3616 33.3191 40.8513 32.8693 40.8513 32.3145V30.8077C40.8513 30.253 40.3616 29.8032 39.7576 29.8032H38.1169C37.513 29.8032 37.0232 30.253 37.0232 30.8077V32.3145C37.0232 32.8692 37.513 33.3191 38.1169 33.3191Z" fill="#19BCE4"/>
<path d="M38.1169 39.3464H39.7576C40.3616 39.3464 40.8513 38.8966 40.8513 38.3419V36.8352C40.8513 36.2805 40.3616 35.8306 39.7576 35.8306H38.1169C37.513 35.8306 37.0232 36.2805 37.0232 36.8352V38.3419C37.0232 38.8966 37.513 39.3464 38.1169 39.3464Z" fill="#19BCE4"/>
<path d="M43.8591 21.2644H45.4996C46.1036 21.2644 46.5934 20.8145 46.5934 20.2598V18.753C46.5934 18.1982 46.1036 17.7485 45.4996 17.7485H43.8591C43.2552 17.7485 42.7654 18.1982 42.7654 18.753V20.2598C42.7654 20.8145 43.2552 21.2644 43.8591 21.2644Z" fill="#19BCE4"/>
<path d="M43.8591 15.237H45.4996C46.1036 15.237 46.5934 14.7871 46.5934 14.2324V12.7258C46.5934 12.171 46.1036 11.7212 45.4996 11.7212H43.8591C43.2552 11.7212 42.7654 12.171 42.7654 12.7258V14.2324C42.7654 14.7871 43.2552 15.237 43.8591 15.237Z" fill="#19BCE4"/>
<path d="M43.8591 9.21009H45.4996C46.1036 9.21009 46.5934 8.76024 46.5934 8.20552V6.69836C46.5934 6.14363 46.1036 5.69379 45.4996 5.69379H43.8591C43.2552 5.69379 42.7654 6.14363 42.7654 6.69836V8.20552C42.7654 8.76024 43.2552 9.21009 43.8591 9.21009Z" fill="#19BCE4"/>
<path d="M43.8591 27.2918H45.4996C46.1036 27.2918 46.5934 26.842 46.5934 26.2873V24.7802C46.5934 24.2254 46.1036 23.7756 45.4996 23.7756H43.8591C43.2552 23.7756 42.7654 24.2254 42.7654 24.7802V26.2873C42.7654 26.842 43.2552 27.2918 43.8591 27.2918Z" fill="#19BCE4"/>
<path d="M43.8591 33.3191H45.4996C46.1036 33.3191 46.5934 32.8693 46.5934 32.3145V30.8077C46.5934 30.253 46.1036 29.8032 45.4996 29.8032H43.8591C43.2552 29.8032 42.7654 30.253 42.7654 30.8077V32.3145C42.7654 32.8692 43.2552 33.3191 43.8591 33.3191Z" fill="#19BCE4"/>
<path d="M43.8591 39.3464H45.4996C46.1036 39.3464 46.5934 38.8966 46.5934 38.3419V36.8352C46.5934 36.2805 46.1036 35.8306 45.4996 35.8306H43.8591C43.2552 35.8306 42.7654 36.2805 42.7654 36.8352V38.3419C42.7654 38.8966 43.2552 39.3464 43.8591 39.3464Z" fill="#19BCE4"/>
<path d="M12.6621 45.8766C12.058 45.8766 11.5684 46.3265 11.5684 46.8812C11.5684 47.436 12.058 47.8858 12.6621 47.8858H12.6879C13.2919 47.8858 13.7817 47.436 13.7817 46.8812C13.7817 46.3264 13.2919 45.8766 12.6879 45.8766H12.6621Z" fill="#19BCE4"/>
<path d="M34.5369 45.8766C33.9328 45.8766 33.4431 46.3265 33.4431 46.8812C33.4431 47.436 33.9328 47.8858 34.5369 47.8858H34.5626C35.1665 47.8858 35.6563 47.436 35.6563 46.8812C35.6563 46.3265 35.1665 45.8766 34.5626 45.8766H34.5369Z" fill="#19BCE4"/>
<path d="M1.11956 49.8947H1.09375C0.489561 49.8947 0 50.3445 0 50.8992C0 51.454 0.489561 51.9038 1.09375 51.9038H1.11956C1.72352 51.9038 2.2133 51.454 2.2133 50.8992C2.2133 50.3444 1.72363 49.8947 1.11956 49.8947Z" fill="#19BCE4"/>
<path d="M54.9067 49.8947H54.8806C54.2765 49.8947 53.7869 50.3445 53.7869 50.8992C53.7869 51.454 54.2765 51.9038 54.8806 51.9038H54.9067C55.5107 51.9038 56.0004 51.454 56.0004 50.8992C56.0004 50.3444 55.5106 49.8947 54.9067 49.8947Z" fill="#19BCE4"/>
<path d="M51.7379 49.8947H50.9682V1.4743C50.9682 0.919474 50.4784 0.469727 49.8744 0.469727H27.9999C27.3957 0.469727 26.9061 0.919474 26.9061 1.4743V13.7304H6.12494C5.52075 13.7304 5.03119 14.1802 5.03119 14.735V49.8947H4.26196C3.65788 49.8947 3.16821 50.3446 3.16821 50.8993C3.16821 51.454 3.65788 51.9039 4.26196 51.9039H6.12494H17.0624H23.6251H27.9999H38.9373H45.4997H49.8744H49.8745H49.8748H51.7379C52.3419 51.9039 52.8316 51.454 52.8316 50.8993C52.8316 50.3445 52.3419 49.8947 51.7379 49.8947ZM22.5313 49.8947H18.1561V45.8767H22.5313V49.8947ZM26.9061 49.8947H24.7188V44.8722C24.7188 44.3174 24.2292 43.8676 23.6251 43.8676H17.0624C16.4582 43.8676 15.9686 44.3174 15.9686 44.8722V49.8947H7.21868V47.8858H9.51927C10.1232 47.8858 10.613 47.436 10.613 46.8812C10.613 46.3265 10.1232 45.8766 9.51927 45.8766H7.21868V15.7395H26.9061V49.8947ZM44.4059 49.8947H40.0311V45.8767H44.4059V49.8947ZM48.7807 49.8947H46.5934V44.8722C46.5934 44.3174 46.1036 43.8676 45.4997 43.8676H38.9373C38.3332 43.8676 37.8436 44.3174 37.8436 44.8722V49.8947H29.0936V47.8858H31.3941C31.9981 47.8858 32.4878 47.436 32.4878 46.8812C32.4878 46.3265 31.9981 45.8766 31.3941 45.8766H29.0936V14.735V2.47887H48.7807V49.8947Z" fill="#19BCE4"/>
</g>
<defs>
<clipPath id="clip0_10103_77">
<rect width="56" height="51.4343" fill="white" transform="translate(0 0.469543)"/>
</clipPath>
</defs>
</svg>
