<svg width="56" height="52" viewBox="0 0 56 52" fill="none" xmlns="http://www.w3.org/2000/svg">
<g clip-path="url(#clip0_10103_43)">
<path d="M7.16182 13.7011C9.11285 13.7011 10.7001 12.2433 10.7001 10.4513C10.7001 8.65936 9.11285 7.20142 7.16182 7.20142C5.21079 7.20142 3.62354 8.65936 3.62354 10.4513C3.62354 12.2433 5.21079 13.7011 7.16182 13.7011ZM7.16182 8.70838C8.20821 8.70838 9.05947 9.49024 9.05947 10.4514C9.05947 11.4124 8.20821 12.1944 7.16182 12.1944C6.11543 12.1944 5.26416 11.4125 5.26416 10.4514C5.26416 9.49024 6.11543 8.70838 7.16182 8.70838Z" fill="#FF2323"/>
<path d="M7.16182 22.0224C9.11285 22.0224 10.7001 20.5645 10.7001 18.7726C10.7001 16.9806 9.11285 15.5228 7.16182 15.5228C5.21079 15.5228 3.62354 16.9807 3.62354 18.7727C3.62354 20.5646 5.21079 22.0224 7.16182 22.0224ZM7.16182 17.0296C8.20821 17.0296 9.05947 17.8115 9.05947 18.7727C9.05947 19.7336 8.20821 20.5156 7.16182 20.5156C6.11543 20.5156 5.26416 19.7337 5.26416 18.7727C5.26416 17.8115 6.11543 17.0296 7.16182 17.0296Z" fill="#FF2323"/>
<path d="M53.4297 3.8729H50.5641V2.12996C50.5641 1.25567 49.7896 0.544434 48.8378 0.544434H7.1622C6.21042 0.544434 5.43594 1.25567 5.43594 2.12996V3.8729H2.57031C1.15303 3.8729 0 4.93192 0 6.23365V8.9443C0 9.3605 0.367281 9.69773 0.820312 9.69773C1.27334 9.69773 1.64062 9.3605 1.64062 8.9443V6.23365C1.64062 5.76281 2.05767 5.37976 2.57031 5.37976H11.7542C12.2668 5.37976 12.6839 5.76281 12.6839 6.23365V13.8584H12.5981C12.1451 13.8584 11.7778 14.1956 11.7778 14.6118C11.7778 15.028 12.1451 15.3653 12.5981 15.3653H12.6839V22.99C12.6839 23.4608 12.2668 23.8439 11.7542 23.8439H2.57031C2.05767 23.8439 1.64062 23.4608 1.64062 22.99V15.3653H1.72627C2.1793 15.3653 2.54658 15.028 2.54658 14.6118C2.54658 14.1956 2.1793 13.8584 1.72627 13.8584H1.64062V11.9581C1.64062 11.5419 1.27334 11.2047 0.820312 11.2047C0.367281 11.2047 0 11.5419 0 11.9581V22.99C0 24.2917 1.15303 25.3507 2.57031 25.3507H4.52987V27.1723H3.53828C2.58639 27.1723 1.81202 27.8836 1.81202 28.7579V30.4221C1.81202 31.2964 2.5865 32.0077 3.53828 32.0077H3.62392V37.7334L0.086625 44.2314C0.0837812 44.2367 0.0817031 44.2421 0.0789687 44.2474C0.0715313 44.2619 0.0644219 44.2765 0.0579687 44.2914C0.0539219 44.3008 0.0503125 44.3102 0.0468125 44.3196C0.0416719 44.333 0.03675 44.3466 0.0324844 44.3604C0.028875 44.372 0.0258125 44.3836 0.02275 44.3951C0.0196875 44.4069 0.0168437 44.4186 0.0144375 44.4306C0.0115937 44.4445 0.00940625 44.4585 0.0074375 44.4725C0.00601563 44.4825 0.00470312 44.4926 0.00371875 44.5028C0.0021875 44.5186 0.00153125 44.5343 0.00109375 44.5501C0.000875 44.5563 0 44.5623 0 44.5683V47.0647C0 47.9389 0.774375 48.6503 1.72627 48.6503H1.81202V50.3932C1.81202 51.2675 2.58639 51.9788 3.53828 51.9788H36.3252C36.7782 51.9788 37.1455 51.6415 37.1455 51.2253C37.1455 50.8091 36.7782 50.4719 36.3252 50.4719H30.628C30.6294 50.4457 30.6323 50.4198 30.6323 50.3932V48.6503H52.5474V50.3932C52.5474 50.4366 52.5089 50.4719 52.4617 50.4719H39.6064C39.1534 50.4719 38.7861 50.8091 38.7861 51.2253C38.7861 51.6415 39.1534 51.9788 39.6064 51.9788H52.4617C53.4136 51.9788 54.188 51.2675 54.188 50.3932V48.6503H54.2737C55.2256 48.6503 56 47.9389 56 47.0647V44.5683C56 44.5623 55.9991 44.5563 55.999 44.5503C55.9986 44.5345 55.9979 44.5188 55.9964 44.503C55.9954 44.4927 55.994 44.4827 55.9927 44.4727C55.9907 44.4587 55.9885 44.4447 55.9857 44.4308C55.9833 44.4188 55.9804 44.4071 55.9774 44.3953C55.9744 44.3837 55.9712 44.3721 55.9676 44.3606C55.9634 44.3468 55.9584 44.3332 55.9533 44.3198C55.9497 44.3103 55.9461 44.301 55.942 44.2916C55.9356 44.2767 55.9285 44.2621 55.921 44.2476C55.9183 44.2423 55.9162 44.2368 55.9134 44.2316L52.3761 37.7337V32.0078H52.4617C53.4136 32.0078 54.188 31.2965 54.188 30.4222V28.758C54.188 27.8837 53.4136 27.1724 52.4617 27.1724H51.4701V25.3508H53.4297C54.847 25.3508 56 24.2918 56 22.9901V6.23365C56 4.93192 54.847 3.8729 53.4297 3.8729ZM7.07656 3.8729V2.12996C7.07656 2.08656 7.11506 2.0513 7.1622 2.0513H48.8377C48.8849 2.0513 48.9233 2.08666 48.9233 2.12996V3.8729H7.07656ZM46.2055 25.3508V27.1724H39.6922V25.3508H44.2458H46.1197H46.2055ZM53.8524 43.8149H30.6323V42.9041C30.6323 41.571 29.4515 40.4864 28 40.4864H13.5042C12.0527 40.4864 10.8719 41.571 10.8719 42.9041V43.8149H2.14758L4.95119 38.6647H51.0487L53.8524 43.8149ZM28.9917 37.1579H27.0083V35.3362H28.9917V37.1579ZM29.812 33.8294H26.188H18.8781C18.3655 33.8294 17.9484 33.4462 17.9484 32.9755V19.5477C17.9484 19.0769 18.3655 18.6938 18.8781 18.6938H37.1219C37.6345 18.6938 38.0516 19.0769 38.0516 19.5477V32.9755C38.0516 33.4462 37.6345 33.8294 37.1219 33.8294H29.812ZM39.6922 23.844V22.0223H41.6755V22.9901C41.6755 23.2912 41.7378 23.579 41.8502 23.844H39.6922ZM41.8503 5.37976C41.7379 5.64477 41.6756 5.93258 41.6756 6.23365V20.5154H39.6922V19.5477C39.6922 18.246 38.5392 17.187 37.1219 17.187H18.8781C17.4608 17.187 16.3078 18.246 16.3078 19.5477V20.5154H14.3245V6.23365C14.3245 5.93258 14.2622 5.64477 14.1498 5.37976H41.8503ZM14.3245 22.9901V22.0223H16.3078V23.844H14.1497C14.2622 23.5789 14.3245 23.2912 14.3245 22.9901ZM11.7542 25.3508H16.3078V27.1724H9.79453V25.3508H9.88028H11.7542ZM6.1705 25.3508H8.15391V27.1724H6.1705V25.3508ZM3.45264 30.4222V28.758C3.45264 28.7146 3.49114 28.6793 3.53828 28.6793H16.3078V30.5009H3.53828C3.49103 30.5009 3.45264 30.4656 3.45264 30.4222ZM16.3078 32.0078V32.9755C16.3078 34.2772 17.4608 35.3362 18.8781 35.3362H25.3677V37.1579H5.26455V32.0078H16.3078ZM1.64062 47.0647V45.3217H10.8719V47.1434H1.72627C1.67912 47.1434 1.64062 47.1082 1.64062 47.0647ZM3.45264 50.3932V48.6503H10.8719V50.3932C10.8719 50.4198 10.8748 50.4457 10.8763 50.4719H3.53828C3.49103 50.4719 3.45264 50.4365 3.45264 50.3932ZM19.7603 50.4719V48.6503H21.7437V50.4719H19.7603ZM22.5641 47.1434H18.9401H18.0031C17.9729 47.1434 17.9484 47.1208 17.9484 47.0932V45.372C17.9484 45.3443 17.9729 45.3217 18.0031 45.3217H23.5011C23.5313 45.3217 23.5558 45.3443 23.5558 45.372V47.0932C23.5558 47.1208 23.5313 47.1434 23.5011 47.1434H22.5641ZM23.3844 50.4719V48.6503H23.5011C24.4359 48.6503 25.1964 47.9518 25.1964 47.0932V45.372C25.1964 44.5133 24.4359 43.8149 23.5011 43.8149H18.0031C17.0683 43.8149 16.3078 44.5133 16.3078 45.372V47.0932C16.3078 47.9518 17.0683 48.6503 18.0031 48.6503H18.1197V50.4719H12.5981C12.5509 50.4719 12.5125 50.4365 12.5125 50.3932V42.9041C12.5125 42.4018 12.9573 41.9933 13.5042 41.9933H28C28.5468 41.9933 28.9917 42.4018 28.9917 42.9041V50.3932C28.9917 50.4366 28.9532 50.4719 28.906 50.4719H23.3844ZM54.3594 47.0647C54.3594 47.1082 54.3209 47.1434 54.2737 47.1434H30.6323V45.3217H54.3594V47.0647ZM50.7355 37.1579H30.6323V35.3362H37.1219C38.5392 35.3362 39.6922 34.2772 39.6922 32.9755V32.0078H50.7355V37.1579ZM52.5474 28.758V30.4222C52.5474 30.4656 52.5089 30.5009 52.4617 30.5009H39.6922V28.6792H52.4617C52.5089 28.6792 52.5474 28.7146 52.5474 28.758ZM49.8294 27.1723H47.8461V25.3507H49.8294V27.1723ZM53.4297 23.844H50.6497H47.0258H46.1197H44.2458C43.7332 23.844 43.3161 23.4609 43.3161 22.9901V15.3654H43.4019C43.8549 15.3654 44.2222 15.0281 44.2222 14.6119C44.2222 14.1957 43.8549 13.8585 43.4019 13.8585H43.3161V6.23375C43.3161 5.76291 43.7332 5.37986 44.2458 5.37986H53.4297C53.9423 5.37986 54.3594 5.76291 54.3594 6.23375V13.8585H54.2737C53.8207 13.8585 53.4534 14.1957 53.4534 14.6119C53.4534 15.0281 53.8207 15.3654 54.2737 15.3654H54.3594V22.9901C54.3594 23.4608 53.9423 23.844 53.4297 23.844Z" fill="#FF2323"/>
<path d="M48.8371 7.2016C46.8861 7.2016 45.2988 8.65954 45.2988 10.4515C45.2988 12.2435 46.8861 13.7013 48.8371 13.7013C50.7881 13.7013 52.3754 12.2435 52.3754 10.4515C52.3754 8.65954 50.788 7.2016 48.8371 7.2016ZM48.8371 12.1943C47.7907 12.1943 46.9395 11.4125 46.9395 10.4514C46.9395 9.49033 47.7907 8.70836 48.8371 8.70836C49.8835 8.70836 50.7348 9.49023 50.7348 10.4514C50.7348 11.4125 49.8834 12.1943 48.8371 12.1943Z" fill="#FF2323"/>
<path d="M48.8371 15.5228C46.8861 15.5228 45.2988 16.9807 45.2988 18.7727C45.2988 20.5646 46.8861 22.0225 48.8371 22.0225C50.7881 22.0225 52.3754 20.5646 52.3754 18.7727C52.3754 16.9807 50.788 15.5228 48.8371 15.5228ZM48.8371 20.5155C47.7907 20.5155 46.9395 19.7336 46.9395 18.7726C46.9395 17.8115 47.7907 17.0295 48.8371 17.0295C49.8835 17.0295 50.7348 17.8114 50.7348 18.7726C50.7348 19.7336 49.8834 20.5155 48.8371 20.5155Z" fill="#FF2323"/>
<path d="M34.3731 20.5157H21.6272C20.6924 20.5157 19.9319 21.2141 19.9319 22.0727V30.4509C19.9319 31.3095 20.6924 32.008 21.6272 32.008H34.373C35.3078 32.008 36.0683 31.3095 36.0683 30.4509V22.0727C36.0684 21.2141 35.3078 20.5157 34.3731 20.5157ZM34.4278 30.4509C34.4278 30.4785 34.4033 30.5011 34.3731 30.5011H21.6272C21.597 30.5011 21.5725 30.4785 21.5725 30.4509V22.0727C21.5725 22.0451 21.597 22.0225 21.6272 22.0225H34.373C34.4032 22.0225 34.4277 22.0451 34.4277 22.0727V30.4509H34.4278Z" fill="#FF2323"/>
<path d="M9.88086 35.3362H11.6929C12.1459 35.3362 12.5132 34.999 12.5132 34.5828C12.5132 34.1666 12.1459 33.8293 11.6929 33.8293H9.88086C9.42783 33.8293 9.06055 34.1666 9.06055 34.5828C9.06055 34.999 9.42783 35.3362 9.88086 35.3362Z" fill="#FF2323"/>
<path d="M44.3083 35.3362H46.1202C46.5733 35.3362 46.9406 34.999 46.9406 34.5828C46.9406 34.1666 46.5733 33.8293 46.1202 33.8293H44.3083C43.8553 33.8293 43.488 34.1666 43.488 34.5828C43.488 34.999 43.8553 35.3362 44.3083 35.3362Z" fill="#FF2323"/>
<path d="M37.0599 41.9934H38.872C39.325 41.9934 39.6923 41.6561 39.6923 41.2399C39.6923 40.8237 39.325 40.4865 38.872 40.4865H37.0601C36.607 40.4865 36.2397 40.8237 36.2397 41.2399C36.2396 41.656 36.6069 41.9934 37.0599 41.9934Z" fill="#FF2323"/>
<path d="M44.3083 41.9934H46.1202C46.5733 41.9934 46.9406 41.6561 46.9406 41.2399C46.9406 40.8237 46.5733 40.4865 46.1202 40.4865H44.3083C43.8553 40.4865 43.488 40.8237 43.488 41.2399C43.488 41.656 43.8553 41.9934 44.3083 41.9934Z" fill="#FF2323"/>
</g>
<defs>
<clipPath id="clip0_10103_43">
<rect width="56" height="51.4343" fill="white" transform="translate(0 0.544434)"/>
</clipPath>
</defs>
</svg>
